<svg aria-hidden="true" style="width:0;height:0;position:absolute;overflow:hidden" xmlns="http://www.w3.org/2000/svg"><defs><symbol id="icon-search" viewBox="0 0 32 32"><path fill="none" stroke="#fff" style="stroke:var(--color1,#fff)" stroke-linejoin="round" stroke-linecap="round" stroke-width="2.667" d="M14.667 25.333c5.891 0 10.667-4.776 10.667-10.667S20.558 3.999 14.667 3.999v0C8.776 3.999 4 8.775 4 14.666s4.776 10.667 10.667 10.667v0zM28 28l-5.8-5.8"/></symbol><symbol id="icon-film" viewBox="0 0 32 32"><path fill="none" stroke-linejoin="round" stroke-linecap="round" stroke-width="2.667" d="M26.427 2.667H5.574a2.907 2.907 0 0 0-2.907 2.907v20.853a2.907 2.907 0 0 0 2.907 2.907h20.853a2.907 2.907 0 0 0 2.907-2.907V5.574a2.907 2.907 0 0 0-2.907-2.907zm-17.094 0v26.667M22.667 2.667v26.667M2.667 16h26.667M2.667 9.333h6.667M2.667 22.667h6.667m13.333 0h6.667M22.667 9.333h6.667"/></symbol><symbol id="icon-arrow-left" viewBox="0 0 32 32"><path stroke-linejoin="round" stroke-linecap="round" stroke-width=".4" d="M15.973 5.32a1.33 1.33 0 0 0-.914.402l-9.223 9.223a1.332 1.332 0 0 0-.003 2.111l.003.002.007.005.005.003 9.211 9.211a1.333 1.333 0 1 0 1.884-1.886l-.001-.001-7.059-7.059h15.453a1.333 1.333 0 1 0 .054-2.665l-.057.001h.003H9.883l7.059-7.059a1.333 1.333 0 0 0-.928-2.29l-.042.001h.002z"/></symbol><symbol id="icon-arrow-right" viewBox="0 0 32 32"><path stroke-linejoin="round" stroke-linecap="round" stroke-width=".4" d="M15.984 5.32a1.333 1.333 0 0 0-.926 2.289l7.059 7.059H6.664l-.054-.001a1.333 1.333 0 0 0 0 2.666l.057-.001h-.003 15.453l-7.059 7.059a1.333 1.333 0 1 0 1.882 1.887l9.223-9.223a1.332 1.332 0 0 0 .003-2.111l-.003-.002-.007-.005-.005-.003-9.211-9.211a1.329 1.329 0 0 0-.954-.402h-.003z"/></symbol><symbol id="icon-close" viewBox="0 0 32 32"><path stroke-width="2.133" d="m8.533 8.533 14.933 14.933m-14.933.001L23.466 8.534"/></symbol></defs></svg>